HIERARCHY
ROOT Hips
{
	OFFSET -3.958830 18.904000 13.208200
	CHANNELS 6 Xposition Yposition Zposition Zrotation Yrotation Xrotation 
	JOINT LHipJoint
	{
		OFFSET 0.000000 0.000000 0.000000
		CHANNELS 3 Zrotation Yrotation Xrotation
		JOINT LeftUpLeg
		{
			OFFSET 1.800000 -1.400000 0.085000
			CHANNELS 3 Zrotation Yrotation Xrotation
			JOINT LeftLeg
			{
				OFFSET 2.215000 -6.000000 0.000000
				CHANNELS 3 Zrotation Yrotation Xrotation
				JOINT LeftFoot
				{
					OFFSET 2.500000 -6.900000 0.000000
					CHANNELS 3 Zrotation Yrotation Xrotation
					JOINT LeftToeBase
					{
						OFFSET 0.200000 -0.500000 1.950000
						CHANNELS 3 Zrotation Yrotation Xrotation
						End Site
						{
							OFFSET 0.000000 0.000000 0.000000
						}
					}
				}
			}
		}
	}
	JOINT RHipJoint
	{
		OFFSET 0.000000 0.000000 0.000000
		CHANNELS 3 Zrotation Yrotation Xrotation
		JOINT RightUpLeg
		{
			OFFSET -1.800000 -1.400000 0.085000
			CHANNELS 3 Zrotation Yrotation Xrotation
			JOINT RightLeg
			{
				OFFSET -2.215000 -6.000000 0.000000
				CHANNELS 3 Zrotation Yrotation Xrotation
				JOINT RightFoot
				{
					OFFSET -2.500000 -6.900000 0.000000
					CHANNELS 3 Zrotation Yrotation Xrotation
					JOINT RightToeBase
					{
						OFFSET -0.200000 -0.500000 1.950000
						CHANNELS 3 Zrotation Yrotation Xrotation
						End Site
						{
							OFFSET 0.000000 0.000000 0.000000
						}
					}
				}
			}
		}
	}
	JOINT LowerBack
	{
		OFFSET 0.000000 0.000000 0.000000
		CHANNELS 3 Zrotation Yrotation Xrotation
		JOINT Spine
		{
			OFFSET -0.087000 1.940000 -0.288900
			CHANNELS 3 Zrotation Yrotation Xrotation
			JOINT Spine1
			{
				OFFSET 0.000000 1.950000 0.060000
				CHANNELS 3 Zrotation Yrotation Xrotation
				JOINT Neck
				{
					OFFSET 0.000000 0.000000 0.000000
					CHANNELS 3 Zrotation Yrotation Xrotation
					JOINT Neck1
					{
						OFFSET 0.000000 1.600000 0.340000
						CHANNELS 3 Zrotation Yrotation Xrotation
						JOINT Head
						{
							OFFSET 0.000000 1.667000 -0.240000
							CHANNELS 3 Zrotation Yrotation Xrotation
							End Site
							{
								OFFSET 0.000000 0.000000 0.000000
							}
						}
					}
				}
				JOINT LeftShoulder
				{
					OFFSET 0.000000 0.000000 0.000000
					CHANNELS 3 Zrotation Yrotation Xrotation
					JOINT LeftArm
					{
						OFFSET 2.700000 1.550000 -0.730000
						CHANNELS 3 Zrotation Yrotation Xrotation
						JOINT LeftForeArm
						{
							OFFSET 5.450000 0.000000 0.000000
							CHANNELS 3 Zrotation Yrotation Xrotation
							JOINT LeftHand
							{
								OFFSET 3.450000 0.000000 0.000000
								CHANNELS 3 Zrotation Yrotation Xrotation
								JOINT LeftHandIndex1
								{
									OFFSET 0.750000 0.000000 0.000000
									CHANNELS 3 Zrotation Yrotation Xrotation
									End Site
									{
										OFFSET 0.000000 0.000000 0.000000
									}
								}
							}
						}
					}
				}
				JOINT RightShoulder
				{
					OFFSET 0.000000 0.000000 0.000000
					CHANNELS 3 Zrotation Yrotation Xrotation
					JOINT RightArm
					{
						OFFSET -2.700000 1.550000 -0.730000
						CHANNELS 3 Zrotation Yrotation Xrotation
						JOINT RightForeArm
						{
							OFFSET -5.450000 0.000000 0.000000
							CHANNELS 3 Zrotation Yrotation Xrotation
							JOINT RightHand
							{
								OFFSET -3.450000 0.000000 0.000000
								CHANNELS 3 Zrotation Yrotation Xrotation
								JOINT RightHandIndex1
								{
									OFFSET -0.750000 0.000000 0.000000
									CHANNELS 3 Zrotation Yrotation Xrotation
									End Site
									{
										OFFSET 0.000000 0.000000 0.000000
									}
								}
							}
						}
					}
				}
			}
		}
	}
}
MOTION
Frames: 4
Frame Time: 0.016667
0.452520 17.613580 -1.571420 -6.826534 25.778982 1.991630 -15.273581 12.336618 2.888722 7.201467 -1.604076 -28.538003 0.380881 3.961148 13.920219 -1.350590 3.396594 3.258211 0.122580 -0.085750 -0.113350 18.177466 -11.543637 2.914762 -1.478940 1.845482 -13.067038 7.677978 -5.061601 13.428271 0.050034 -3.842088 2.979754 0.363830 0.733190 0.223470 -3.774775 1.087579 -7.333959 5.926666 11.263337 15.226512 4.314620 11.592532 19.422333 4.957043 5.633795 -10.015423 14.394300 -0.848823 58.628810 3.318480 5.122930 1.713910 1.487875 -22.270991 2.642071 -48.860910 -47.506022 17.596627 -3.878379 -35.395031 0.093784 -4.300028 2.784756 0.308330 0.526540 -0.409100 0.094530 -9.277129 24.045716 4.972049 49.006231 52.026135 27.445472 3.252693 -5.430373 0.777175 2.491698 -1.187433 -0.544010 0.426470 0.467320 -0.192150 
0.458570 17.609290 -1.566730 -6.555238 25.840372 2.573404 -15.302838 12.338715 2.906108 6.804720 -1.703151 -28.661684 0.502796 3.855478 13.471740 -1.316250 3.307127 3.293181 0.127620 -0.073800 -0.130370 18.153037 -11.502708 2.900231 -1.732480 1.842580 -13.386668 7.744713 -4.990135 13.053509 0.051559 -3.780095 3.000173 0.353630 0.735650 0.224690 -3.673439 0.997737 -7.292022 4.894726 11.674831 14.742191 5.625701 11.735664 19.244083 4.315130 5.865799 -10.183031 14.790555 -1.094786 58.198733 4.651300 4.726320 1.846750 2.376547 -22.141215 2.906194 -49.846857 -47.109194 16.933506 -6.083583 -38.736180 0.743930 -4.234304 2.872124 0.304450 0.507170 -0.397890 0.109630 -8.829915 23.930729 5.002479 48.706598 50.202503 26.126532 3.275760 -5.841891 0.793642 2.501635 -1.200524 -0.522950 0.420580 0.457520 -0.168120 
0.468150 17.601460 -1.557720 -6.437875 26.109800 3.736924 -15.335625 12.253372 2.936358 6.397536 -1.821110 -29.242966 0.555788 3.720613 12.584419 -1.320258 3.220855 3.337615 0.101950 -0.109500 -0.175010 18.143981 -11.444043 2.885786 -1.729714 1.928073 -14.198154 7.781179 -4.841435 12.390373 0.079851 -3.666734 3.046141 0.333900 0.771450 0.214790 -3.564772 1.023742 -7.202470 3.555404 12.787366 13.503227 8.624950 12.292103 18.894441 3.245150 6.450789 -10.378763 15.717664 -2.212325 56.277403 6.285900 3.553070 1.826700 4.157307 -20.909364 3.138268 -53.340482 -47.733978 17.696212 -11.608629 -44.945615 2.727645 -4.172836 3.022866 0.317000 0.497450 -0.413160 0.120860 -8.280905 22.671382 5.011698 48.487875 46.266704 23.334663 2.334126 -6.674485 0.761948 2.471504 -1.225047 -0.538860 0.443720 0.480060 -0.150990 
0.481410 17.594400 -1.548300 -6.222429 27.132271 5.365687 -15.351343 12.102972 3.018843 5.789907 -2.151966 -30.423407 0.595802 3.595440 11.827344 -1.340547 3.139241 3.393245 0.036470 -0.176810 -0.256630 18.156460 -11.371789 2.869741 -2.091783 2.248459 -15.852414 8.254421 -4.793506 12.275036 0.151482 -3.563640 3.110507 0.313710 0.840270 0.166780 -3.519420 1.115582 -7.121909 2.147420 13.697274 12.000275 11.717144 12.615440 18.219627 1.971534 7.044814 -10.432246 16.359697 -3.396835 53.034775 8.050070 1.803150 1.911690 6.517756 -18.713385 3.320033 -57.590071 -48.131959 19.234155 -20.238180 -52.253997 6.739832 -4.148689 3.205330 0.312760 0.506890 -0.468600 0.121900 -7.895952 20.215889 4.854123 49.003405 41.834677 20.333781 0.371202 -7.058046 0.716197 2.419478 -1.240358 -0.589150 0.501400 0.523700 -0.131760 
